                                                                        S      1
1H,,1H;,7HOSEP-16,15Hhull-design.igs,9HFusion360,9HFusion360,32,308,15,G      1
308,15,7HOSEP-16,1.0,2,2HIN,32768,0.0394,15H20251128.000000,0.0001,   G      2
0.0,,,11,0,15H20251128.000000,;                                       G      3
     126             1       0       0       0       0       0       000000000D      1
     126       0       0       1       0                               0D      2
     126            11       0       0       0       0       0       000000000D      3
     126       0       0       1       0                               0D      4
     126            21       0       0       0       0       0       000000000D      5
     126       0       0       1       0                               0D      6
     126            31       0       0       0       0       0       000000000D      7
     126       0       0       1       0                               0D      8
     126            41       0       0       0       0       0       000000000D      9
     126       0       0       1       0                               0D     10
     126            51       0       0       0       0       0       000000000D     11
     126       0       0       1       0                               0D     12
     126            61       0       0       0       0       0       000000000D     13
     126       0       0       1       0                               0D     14
     126            71       0       0       0       0       0       000000000D     15
     126       0       0       1       0                               0D     16
     126            81       0       0       0       0       0       000000000D     17
     126       0       0       1       0                               0D     18
     126            91       0       0       0       0       0       000000000D     19
     126       0       0       1       0                               0D     20
     126           101       0       0       0       0       0       000000000D     21
     126       0       0       1       0                               0D     22
S      1G      3D     22P      0                                        T      1
110,0.0,-2.0000,0.0000,0.0,12.0000,0.0000;P      1
106,1,5,0.0000,-4.0000,19.2000,-6.0000,14.0000,19.2000,0.0000,14.0000,19.2000,6.0000,14.0000,19.2000,0.0000,-4.0000,19.2000;P      2
106,1,5,0.0000,-6.0000,38.4000,-9.0000,15.0000,38.4000,0.0000,15.0000,38.4000,9.0000,15.0000,38.4000,0.0000,-6.0000,38.4000;P      3
106,1,5,0.0000,-7.0000,57.6000,-11.0000,16.0000,57.6000,0.0000,16.0000,57.6000,11.0000,16.0000,57.6000,0.0000,-7.0000,57.6000;P      4
106,1,5,0.0000,-7.5000,76.8000,-11.5000,16.0000,76.8000,0.0000,16.0000,76.8000,11.5000,16.0000,76.8000,0.0000,-7.5000,76.8000;P      5
106,1,5,0.0000,-8.0000,96.0000,-12.0000,16.0000,96.0000,0.0000,16.0000,96.0000,12.0000,16.0000,96.0000,0.0000,-8.0000,96.0000;P      6
106,1,5,0.0000,-7.5000,115.2000,-11.5000,16.0000,115.2000,0.0000,16.0000,115.2000,11.5000,16.0000,115.2000,0.0000,-7.5000,115.2000;P      7
106,1,5,0.0000,-7.0000,134.4000,-11.0000,16.0000,134.4000,0.0000,16.0000,134.4000,11.0000,16.0000,134.4000,0.0000,-7.0000,134.4000;P      8
106,1,5,0.0000,-6.0000,153.6000,-9.0000,15.0000,153.6000,0.0000,15.0000,153.6000,9.0000,15.0000,153.6000,0.0000,-6.0000,153.6000;P      9
106,1,5,0.0000,-4.0000,172.8000,-6.0000,14.0000,172.8000,0.0000,14.0000,172.8000,6.0000,14.0000,172.8000,0.0000,-4.0000,172.8000;P     10
110,0.0,-2.0000,192.0000,0.0,12.0000,192.0000;P     11
S      1G      3D     22P     11                                        T      1
