# OSEP-16 Main Hull
# Generated for Fusion 360 import

v 0.0000 12.0000 0.0000
v 0.0000 -2.0000 0.0000
v 0.0000 -4.0000 19.2000
v -1.1000 -3.6000 19.2000
v -2.2000 -3.2000 19.2000
v -3.3000 -2.8000 19.2000
v -4.4000 -2.4000 19.2000
v -5.5000 -2.0000 19.2000
v -5.6000 1.2000 19.2000
v -5.7000 4.4000 19.2000
v -5.8000 7.6000 19.2000
v -5.9000 10.8000 19.2000
v -6.0000 14.0000 19.2000
v 0.0000 14.0000 19.2000
v 5.9000 10.8000 19.2000
v 5.8000 7.6000 19.2000
v 5.7000 4.4000 19.2000
v 5.6000 1.2000 19.2000
v 5.5000 -2.0000 19.2000
v 5.5088 -2.7840 19.2000
v 5.3064 -2.9920 19.2000
v 4.5496 -3.0080 19.2000
v 2.8952 -3.2160 19.2000
v 0.0000 -4.0000 19.2000
v 0.0000 -6.0000 38.4000
v -1.7000 -5.0000 38.4000
v -3.4000 -4.0000 38.4000
v -5.1000 -3.0000 38.4000
v -6.8000 -2.0000 38.4000
v -8.5000 -1.0000 38.4000
v -8.6000 2.2000 38.4000
v -8.7000 5.4000 38.4000
v -8.8000 8.6000 38.4000
v -8.9000 11.8000 38.4000
v -9.0000 15.0000 38.4000
v 0.0000 15.0000 38.4000
v 8.9000 11.8000 38.4000
v 8.8000 8.6000 38.4000
v 8.7000 5.4000 38.4000
v 8.6000 2.2000 38.4000
v 8.5000 -1.0000 38.4000
v 8.5136 -2.0960 38.4000
v 8.2008 -3.0480 38.4000
v 7.0312 -3.9520 38.4000
v 4.4744 -4.9040 38.4000
v 0.0000 -6.0000 38.4000
v 0.0000 -7.0000 57.6000
v -2.0000 -5.6000 57.6000
v -4.0000 -4.2000 57.6000
v -6.0000 -2.8000 57.6000
v -8.0000 -1.4000 57.6000
v -10.0000 0.0000 57.6000
v -10.2000 3.2000 57.6000
v -10.4000 6.4000 57.6000
v -10.6000 9.6000 57.6000
v -10.8000 12.8000 57.6000
v -11.0000 16.0000 57.6000
v 0.0000 16.0000 57.6000
v 10.8000 12.8000 57.6000
v 10.6000 9.6000 57.6000
v 10.4000 6.4000 57.6000
v 10.2000 3.2000 57.6000
v 10.0000 0.0000 57.6000
v 10.0160 -1.3040 57.6000
v 9.6480 -2.7520 57.6000
v 8.2720 -4.2480 57.6000
v 5.2640 -5.6960 57.6000
v 0.0000 -7.0000 57.6000
v 0.0000 -7.5000 76.8000
v -2.1000 -6.0000 76.8000
v -4.2000 -4.5000 76.8000
v -6.3000 -3.0000 76.8000
v -8.4000 -1.5000 76.8000
v -10.5000 0.0000 76.8000
v -10.7000 3.2000 76.8000
v -10.9000 6.4000 76.8000
v -11.1000 9.6000 76.8000
v -11.3000 12.8000 76.8000
v -11.5000 16.0000 76.8000
v 0.0000 16.0000 76.8000
v 11.3000 12.8000 76.8000
v 11.1000 9.6000 76.8000
v 10.9000 6.4000 76.8000
v 10.7000 3.2000 76.8000
v 10.5000 0.0000 76.8000
v 10.5168 -1.3560 76.8000
v 10.1304 -2.9280 76.8000
v 8.6856 -4.5720 76.8000
v 5.5272 -6.1440 76.8000
v 0.0000 -7.5000 76.8000
v 0.0000 -8.0000 96.0000
v -2.0000 -6.4000 96.0000
v -4.0000 -4.8000 96.0000
v -6.0000 -3.2000 96.0000
v -8.0000 -1.6000 96.0000
v -10.0000 0.0000 96.0000
v -10.4000 3.2000 96.0000
v -10.8000 6.4000 96.0000
v -11.2000 9.6000 96.0000
v -11.6000 12.8000 96.0000
v -12.0000 16.0000 96.0000
v 0.0000 16.0000 96.0000
v 11.6000 12.8000 96.0000
v 11.2000 9.6000 96.0000
v 10.8000 6.4000 96.0000
v 10.4000 3.2000 96.0000
v 10.0000 0.0000 96.0000
v 10.0160 -1.4080 96.0000
v 9.6480 -3.1040 96.0000
v 8.2720 -4.8960 96.0000
v 5.2640 -6.5920 96.0000
v 0.0000 -8.0000 96.0000
v 0.0000 -7.5000 115.2000
v -2.1000 -6.0000 115.2000
v -4.2000 -4.5000 115.2000
v -6.3000 -3.0000 115.2000
v -8.4000 -1.5000 115.2000
v -10.5000 0.0000 115.2000
v -10.7000 3.2000 115.2000
v -10.9000 6.4000 115.2000
v -11.1000 9.6000 115.2000
v -11.3000 12.8000 115.2000
v -11.5000 16.0000 115.2000
v 0.0000 16.0000 115.2000
v 11.3000 12.8000 115.2000
v 11.1000 9.6000 115.2000
v 10.9000 6.4000 115.2000
v 10.7000 3.2000 115.2000
v 10.5000 0.0000 115.2000
v 10.5168 -1.3560 115.2000
v 10.1304 -2.9280 115.2000
v 8.6856 -4.5720 115.2000
v 5.5272 -6.1440 115.2000
v 0.0000 -7.5000 115.2000
v 0.0000 -7.0000 134.4000
v -2.0000 -5.6000 134.4000
v -4.0000 -4.2000 134.4000
v -6.0000 -2.8000 134.4000
v -8.0000 -1.4000 134.4000
v -10.0000 0.0000 134.4000
v -10.2000 3.2000 134.4000
v -10.4000 6.4000 134.4000
v -10.6000 9.6000 134.4000
v -10.8000 12.8000 134.4000
v -11.0000 16.0000 134.4000
v 0.0000 16.0000 134.4000
v 10.8000 12.8000 134.4000
v 10.6000 9.6000 134.4000
v 10.4000 6.4000 134.4000
v 10.2000 3.2000 134.4000
v 10.0000 0.0000 134.4000
v 10.0160 -1.3040 134.4000
v 9.6480 -2.7520 134.4000
v 8.2720 -4.2480 134.4000
v 5.2640 -5.6960 134.4000
v 0.0000 -7.0000 134.4000
v 0.0000 -6.0000 153.6000
v -1.7000 -5.0000 153.6000
v -3.4000 -4.0000 153.6000
v -5.1000 -3.0000 153.6000
v -6.8000 -2.0000 153.6000
v -8.5000 -1.0000 153.6000
v -8.6000 2.2000 153.6000
v -8.7000 5.4000 153.6000
v -8.8000 8.6000 153.6000
v -8.9000 11.8000 153.6000
v -9.0000 15.0000 153.6000
v 0.0000 15.0000 153.6000
v 8.9000 11.8000 153.6000
v 8.8000 8.6000 153.6000
v 8.7000 5.4000 153.6000
v 8.6000 2.2000 153.6000
v 8.5000 -1.0000 153.6000
v 8.5136 -2.0960 153.6000
v 8.2008 -3.0480 153.6000
v 7.0312 -3.9520 153.6000
v 4.4744 -4.9040 153.6000
v 0.0000 -6.0000 153.6000
v 0.0000 -4.0000 172.8000
v -1.1000 -3.6000 172.8000
v -2.2000 -3.2000 172.8000
v -3.3000 -2.8000 172.8000
v -4.4000 -2.4000 172.8000
v -5.5000 -2.0000 172.8000
v -5.6000 1.2000 172.8000
v -5.7000 4.4000 172.8000
v -5.8000 7.6000 172.8000
v -5.9000 10.8000 172.8000
v -6.0000 14.0000 172.8000
v 0.0000 14.0000 172.8000
v 5.9000 10.8000 172.8000
v 5.8000 7.6000 172.8000
v 5.7000 4.4000 172.8000
v 5.6000 1.2000 172.8000
v 5.5000 -2.0000 172.8000
v 5.5088 -2.7840 172.8000
v 5.3064 -2.9920 172.8000
v 4.5496 -3.0080 172.8000
v 2.8952 -3.2160 172.8000
v 0.0000 -4.0000 172.8000
v 0.0000 12.0000 192.0000
v 0.0000 -2.0000 192.0000

# Total vertices: 202

f 1 2 4 3
f 3 4 26 25
f 4 5 27 26
f 5 6 28 27
f 6 7 29 28
f 7 8 30 29
f 8 9 31 30
f 9 10 32 31
f 10 11 33 32
f 11 12 34 33
f 12 13 35 34
f 13 14 36 35
f 14 15 37 36
f 15 16 38 37
f 16 17 39 38
f 17 18 40 39
f 18 19 41 40
f 19 20 42 41
f 20 21 43 42
f 21 22 44 43
f 22 23 45 44
f 23 24 46 45
f 25 26 48 47
f 26 27 49 48
f 27 28 50 49
f 28 29 51 50
f 29 30 52 51
f 30 31 53 52
f 31 32 54 53
f 32 33 55 54
f 33 34 56 55
f 34 35 57 56
f 35 36 58 57
f 36 37 59 58
f 37 38 60 59
f 38 39 61 60
f 39 40 62 61
f 40 41 63 62
f 41 42 64 63
f 42 43 65 64
f 43 44 66 65
f 44 45 67 66
f 45 46 68 67
f 47 48 70 69
f 48 49 71 70
f 49 50 72 71
f 50 51 73 72
f 51 52 74 73
f 52 53 75 74
f 53 54 76 75
f 54 55 77 76
f 55 56 78 77
f 56 57 79 78
f 57 58 80 79
f 58 59 81 80
f 59 60 82 81
f 60 61 83 82
f 61 62 84 83
f 62 63 85 84
f 63 64 86 85
f 64 65 87 86
f 65 66 88 87
f 66 67 89 88
f 67 68 90 89
f 69 70 92 91
f 70 71 93 92
f 71 72 94 93
f 72 73 95 94
f 73 74 96 95
f 74 75 97 96
f 75 76 98 97
f 76 77 99 98
f 77 78 100 99
f 78 79 101 100
f 79 80 102 101
f 80 81 103 102
f 81 82 104 103
f 82 83 105 104
f 83 84 106 105
f 84 85 107 106
f 85 86 108 107
f 86 87 109 108
f 87 88 110 109
f 88 89 111 110
f 89 90 112 111
f 91 92 114 113
f 92 93 115 114
f 93 94 116 115
f 94 95 117 116
f 95 96 118 117
f 96 97 119 118
f 97 98 120 119
f 98 99 121 120
f 99 100 122 121
f 100 101 123 122
f 101 102 124 123
f 102 103 125 124
f 103 104 126 125
f 104 105 127 126
f 105 106 128 127
f 106 107 129 128
f 107 108 130 129
f 108 109 131 130
f 109 110 132 131
f 110 111 133 132
f 111 112 134 133
f 113 114 136 135
f 114 115 137 136
f 115 116 138 137
f 116 117 139 138
f 117 118 140 139
f 118 119 141 140
f 119 120 142 141
f 120 121 143 142
f 121 122 144 143
f 122 123 145 144
f 123 124 146 145
f 124 125 147 146
f 125 126 148 147
f 126 127 149 148
f 127 128 150 149
f 128 129 151 150
f 129 130 152 151
f 130 131 153 152
f 131 132 154 153
f 132 133 155 154
f 133 134 156 155
f 135 136 158 157
f 136 137 159 158
f 137 138 160 159
f 138 139 161 160
f 139 140 162 161
f 140 141 163 162
f 141 142 164 163
f 142 143 165 164
f 143 144 166 165
f 144 145 167 166
f 145 146 168 167
f 146 147 169 168
f 147 148 170 169
f 148 149 171 170
f 149 150 172 171
f 150 151 173 172
f 151 152 174 173
f 152 153 175 174
f 153 154 176 175
f 154 155 177 176
f 155 156 178 177
f 157 158 180 179
f 158 159 181 180
f 159 160 182 181
f 160 161 183 182
f 161 162 184 183
f 162 163 185 184
f 163 164 186 185
f 164 165 187 186
f 165 166 188 187
f 166 167 189 188
f 167 168 190 189
f 168 169 191 190
f 169 170 192 191
f 170 171 193 192
f 171 172 194 193
f 172 173 195 194
f 173 174 196 195
f 174 175 197 196
f 175 176 198 197
f 176 177 199 198
f 177 178 200 199
f 179 180 202 201
