0
SECTION
2
HEADER
9
$ACADVER
1
AC1015
0
ENDSEC
0
SECTION
2
ENTITIES
0
LINE
8
0
10
0
20
-2
30
0
11
0
21
12
31
0
0
POLYLINE
8
0
66
1
70
8
0
VERTEX
8
0
70
32
10
0
20
-4
30
19.2
0
VERTEX
8
0
70
32
10
-5.5
20
-2
30
19.2
0
VERTEX
8
0
70
32
10
-6
20
14
30
19.2
0
VERTEX
8
0
70
32
10
0
20
14
30
19.2
0
VERTEX
8
0
70
32
10
6
20
14
30
19.2
0
VERTEX
8
0
70
32
10
5.5
20
-2
30
19.2
0
SEQEND
0
POLYLINE
8
0
66
1
70
8
0
VERTEX
8
0
70
32
10
0
20
-6
30
38.4
0
VERTEX
8
0
70
32
10
-8.5
20
-1
30
38.4
0
VERTEX
8
0
70
32
10
-9
20
15
30
38.4
0
VERTEX
8
0
70
32
10
0
20
15
30
38.4
0
VERTEX
8
0
70
32
10
9
20
15
30
38.4
0
VERTEX
8
0
70
32
10
8.5
20
-1
30
38.4
0
SEQEND
0
POLYLINE
8
0
66
1
70
8
0
VERTEX
8
0
70
32
10
0
20
-7
30
57.6
0
VERTEX
8
0
70
32
10
-10
20
0
30
57.6
0
VERTEX
8
0
70
32
10
-11
20
16
30
57.6
0
VERTEX
8
0
70
32
10
0
20
16
30
57.6
0
VERTEX
8
0
70
32
10
11
20
16
30
57.6
0
VERTEX
8
0
70
32
10
10
20
0
30
57.6
0
SEQEND
0
POLYLINE
8
0
66
1
70
8
0
VERTEX
8
0
70
32
10
0
20
-7.5
30
76.8
0
VERTEX
8
0
70
32
10
-10.5
20
0
30
76.8
0
VERTEX
8
0
70
32
10
-11.5
20
16
30
76.8
0
VERTEX
8
0
70
32
10
0
20
16
30
76.8
0
VERTEX
8
0
70
32
10
11.5
20
16
30
76.8
0
VERTEX
8
0
70
32
10
10.5
20
0
30
76.8
0
SEQEND
0
POLYLINE
8
0
66
1
70
8
0
VERTEX
8
0
70
32
10
0
20
-8
30
96
0
VERTEX
8
0
70
32
10
-10
20
0
30
96
0
VERTEX
8
0
70
32
10
-12
20
16
30
96
0
VERTEX
8
0
70
32
10
0
20
16
30
96
0
VERTEX
8
0
70
32
10
12
20
16
30
96
0
VERTEX
8
0
70
32
10
10
20
0
30
96
0
SEQEND
0
POLYLINE
8
0
66
1
70
8
0
VERTEX
8
0
70
32
10
0
20
-7.5
30
115.2
0
VERTEX
8
0
70
32
10
-10.5
20
0
30
115.2
0
VERTEX
8
0
70
32
10
-11.5
20
16
30
115.2
0
VERTEX
8
0
70
32
10
0
20
16
30
115.2
0
VERTEX
8
0
70
32
10
11.5
20
16
30
115.2
0
VERTEX
8
0
70
32
10
10.5
20
0
30
115.2
0
SEQEND
0
POLYLINE
8
0
66
1
70
8
0
VERTEX
8
0
70
32
10
0
20
-7
30
134.4
0
VERTEX
8
0
70
32
10
-10
20
0
30
134.4
0
VERTEX
8
0
70
32
10
-11
20
16
30
134.4
0
VERTEX
8
0
70
32
10
0
20
16
30
134.4
0
VERTEX
8
0
70
32
10
11
20
16
30
134.4
0
VERTEX
8
0
70
32
10
10
20
0
30
134.4
0
SEQEND
0
POLYLINE
8
0
66
1
70
8
0
VERTEX
8
0
70
32
10
0
20
-6
30
153.6
0
VERTEX
8
0
70
32
10
-8.5
20
-1
30
153.6
0
VERTEX
8
0
70
32
10
-9
20
15
30
153.6
0
VERTEX
8
0
70
32
10
0
20
15
30
153.6
0
VERTEX
8
0
70
32
10
9
20
15
30
153.6
0
VERTEX
8
0
70
32
10
8.5
20
-1
30
153.6
0
SEQEND
0
POLYLINE
8
0
66
1
70
8
0
VERTEX
8
0
70
32
10
0
20
-4
30
172.8
0
VERTEX
8
0
70
32
10
-5.5
20
-2
30
172.8
0
VERTEX
8
0
70
32
10
-6
20
14
30
172.8
0
VERTEX
8
0
70
32
10
0
20
14
30
172.8
0
VERTEX
8
0
70
32
10
6
20
14
30
172.8
0
VERTEX
8
0
70
32
10
5.5
20
-2
30
172.8
0
SEQEND
0
LINE
8
0
10
0
20
-2
30
192
11
0
21
12
31
192
0
POLYLINE
8
0
66
1
70
8
0
VERTEX
8
0
70
32
10
0
20
-2
30
0
0
VERTEX
8
0
70
32
10
0
20
-4
30
19.2
0
VERTEX
8
0
70
32
10
0
20
-6
30
38.4
0
VERTEX
8
0
70
32
10
0
20
-7
30
57.6
0
VERTEX
8
0
70
32
10
0
20
-7.5
30
76.8
0
VERTEX
8
0
70
32
10
0
20
-8
30
96
0
VERTEX
8
0
70
32
10
0
20
-7.5
30
115.2
0
VERTEX
8
0
70
32
10
0
20
-7
30
134.4
0
VERTEX
8
0
70
32
10
0
20
-6
30
153.6
0
VERTEX
8
0
70
32
10
0
20
-4
30
172.8
0
VERTEX
8
0
70
32
10
0
20
-2
30
192
0
SEQEND
0
POLYLINE
8
0
66
1
70
8
0
VERTEX
8
0
70
32
10
0
20
12
30
0
0
VERTEX
8
0
70
32
10
-6
20
14
30
19.2
0
VERTEX
8
0
70
32
10
-9
20
15
30
38.4
0
VERTEX
8
0
70
32
10
-11
20
16
30
57.6
0
VERTEX
8
0
70
32
10
-11.5
20
16
30
76.8
0
VERTEX
8
0
70
32
10
-12
20
16
30
96
0
VERTEX
8
0
70
32
10
-11.5
20
16
30
115.2
0
VERTEX
8
0
70
32
10
-11
20
16
30
134.4
0
VERTEX
8
0
70
32
10
-9
20
15
30
153.6
0
VERTEX
8
0
70
32
10
-6
20
14
30
172.8
0
VERTEX
8
0
70
32
10
0
20
12
30
192
0
SEQEND
0
POLYLINE
8
0
66
1
70
8
0
VERTEX
8
0
70
32
10
0
20
12
30
0
0
VERTEX
8
0
70
32
10
6
20
14
30
19.2
0
VERTEX
8
0
70
32
10
9
20
15
30
38.4
0
VERTEX
8
0
70
32
10
11
20
16
30
57.6
0
VERTEX
8
0
70
32
10
11.5
20
16
30
76.8
0
VERTEX
8
0
70
32
10
12
20
16
30
96
0
VERTEX
8
0
70
32
10
11.5
20
16
30
115.2
0
VERTEX
8
0
70
32
10
11
20
16
30
134.4
0
VERTEX
8
0
70
32
10
9
20
15
30
153.6
0
VERTEX
8
0
70
32
10
6
20
14
30
172.8
0
VERTEX
8
0
70
32
10
0
20
12
30
192
0
SEQEND
0
POLYLINE
8
0
66
1
70
8
0
VERTEX
8
0
70
32
10
0
20
-2
30
0
0
VERTEX
8
0
70
32
10
-5.5
20
-2
30
19.2
0
VERTEX
8
0
70
32
10
-8.5
20
-1
30
38.4
0
VERTEX
8
0
70
32
10
-10
20
0
30
57.6
0
VERTEX
8
0
70
32
10
-10.5
20
0
30
76.8
0
VERTEX
8
0
70
32
10
-10
20
0
30
96
0
VERTEX
8
0
70
32
10
-10.5
20
0
30
115.2
0
VERTEX
8
0
70
32
10
-10
20
0
30
134.4
0
VERTEX
8
0
70
32
10
-8.5
20
-1
30
153.6
0
VERTEX
8
0
70
32
10
-5.5
20
-2
30
172.8
0
VERTEX
8
0
70
32
10
0
20
-2
30
192
0
SEQEND
0
POLYLINE
8
0
66
1
70
8
0
VERTEX
8
0
70
32
10
0
20
-2
30
0
0
VERTEX
8
0
70
32
10
5.5
20
-2
30
19.2
0
VERTEX
8
0
70
32
10
8.5
20
-1
30
38.4
0
VERTEX
8
0
70
32
10
10
20
0
30
57.6
0
VERTEX
8
0
70
32
10
10.5
20
0
30
76.8
0
VERTEX
8
0
70
32
10
10
20
0
30
96
0
VERTEX
8
0
70
32
10
10.5
20
0
30
115.2
0
VERTEX
8
0
70
32
10
10
20
0
30
134.4
0
VERTEX
8
0
70
32
10
8.5
20
-1
30
153.6
0
VERTEX
8
0
70
32
10
5.5
20
-2
30
172.8
0
VERTEX
8
0
70
32
10
0
20
-2
30
192
0
SEQEND
0
ENDSEC
0
EOF
