  0
SECTION
  2
HEADER
  9
$ACADVER
  1
AC1015
  9
$INSUNITS
 70
1
  0
ENDSEC
  0
SECTION
  2
TABLES
  0
TABLE
  2
LAYER
 70
1
  0
LAYER
  2
0
 70
0
 62
7
  6
CONTINUOUS
  0
ENDTAB
  0
ENDSEC
  0
SECTION
  2
ENTITIES
  0
LINE
  8
0
 10
0.0
 20
-2.00
 30
0.00
 11
0.0
 21
12.00
 31
0.00
  0
LINE
  8
0
 10
0.0000
 20
-4.0000
 30
19.2000
 11
-5.5000
 21
-2.0000
 31
19.2000
  0
LINE
  8
0
 10
-5.5000
 20
-2.0000
 30
19.2000
 11
-6.0000
 21
14.0000
 31
19.2000
  0
LINE
  8
0
 10
-6.0000
 20
14.0000
 30
19.2000
 11
0.0000
 21
14.0000
 31
19.2000
  0
LINE
  8
0
 10
0.0000
 20
14.0000
 30
19.2000
 11
6.0000
 21
14.0000
 31
19.2000
  0
LINE
  8
0
 10
6.0000
 20
14.0000
 30
19.2000
 11
5.5000
 21
-2.0000
 31
19.2000
  0
LINE
  8
0
 10
5.5000
 20
-2.0000
 30
19.2000
 11
0.0000
 21
-4.0000
 31
19.2000
  0
LINE
  8
0
 10
0.0000
 20
-6.0000
 30
38.4000
 11
-8.5000
 21
-1.0000
 31
38.4000
  0
LINE
  8
0
 10
-8.5000
 20
-1.0000
 30
38.4000
 11
-9.0000
 21
15.0000
 31
38.4000
  0
LINE
  8
0
 10
-9.0000
 20
15.0000
 30
38.4000
 11
0.0000
 21
15.0000
 31
38.4000
  0
LINE
  8
0
 10
0.0000
 20
15.0000
 30
38.4000
 11
9.0000
 21
15.0000
 31
38.4000
  0
LINE
  8
0
 10
9.0000
 20
15.0000
 30
38.4000
 11
8.5000
 21
-1.0000
 31
38.4000
  0
LINE
  8
0
 10
8.5000
 20
-1.0000
 30
38.4000
 11
0.0000
 21
-6.0000
 31
38.4000
  0
LINE
  8
0
 10
0.0000
 20
-7.0000
 30
57.6000
 11
-10.0000
 21
0.0000
 31
57.6000
  0
LINE
  8
0
 10
-10.0000
 20
0.0000
 30
57.6000
 11
-11.0000
 21
16.0000
 31
57.6000
  0
LINE
  8
0
 10
-11.0000
 20
16.0000
 30
57.6000
 11
0.0000
 21
16.0000
 31
57.6000
  0
LINE
  8
0
 10
0.0000
 20
16.0000
 30
57.6000
 11
11.0000
 21
16.0000
 31
57.6000
  0
LINE
  8
0
 10
11.0000
 20
16.0000
 30
57.6000
 11
10.0000
 21
0.0000
 31
57.6000
  0
LINE
  8
0
 10
10.0000
 20
0.0000
 30
57.6000
 11
0.0000
 21
-7.0000
 31
57.6000
  0
LINE
  8
0
 10
0.0000
 20
-7.5000
 30
76.8000
 11
-10.5000
 21
0.0000
 31
76.8000
  0
LINE
  8
0
 10
-10.5000
 20
0.0000
 30
76.8000
 11
-11.5000
 21
16.0000
 31
76.8000
  0
LINE
  8
0
 10
-11.5000
 20
16.0000
 30
76.8000
 11
0.0000
 21
16.0000
 31
76.8000
  0
LINE
  8
0
 10
0.0000
 20
16.0000
 30
76.8000
 11
11.5000
 21
16.0000
 31
76.8000
  0
LINE
  8
0
 10
11.5000
 20
16.0000
 30
76.8000
 11
10.5000
 21
0.0000
 31
76.8000
  0
LINE
  8
0
 10
10.5000
 20
0.0000
 30
76.8000
 11
0.0000
 21
-7.5000
 31
76.8000
  0
LINE
  8
0
 10
0.0000
 20
-8.0000
 30
96.0000
 11
-10.0000
 21
0.0000
 31
96.0000
  0
LINE
  8
0
 10
-10.0000
 20
0.0000
 30
96.0000
 11
-12.0000
 21
16.0000
 31
96.0000
  0
LINE
  8
0
 10
-12.0000
 20
16.0000
 30
96.0000
 11
0.0000
 21
16.0000
 31
96.0000
  0
LINE
  8
0
 10
0.0000
 20
16.0000
 30
96.0000
 11
12.0000
 21
16.0000
 31
96.0000
  0
LINE
  8
0
 10
12.0000
 20
16.0000
 30
96.0000
 11
10.0000
 21
0.0000
 31
96.0000
  0
LINE
  8
0
 10
10.0000
 20
0.0000
 30
96.0000
 11
0.0000
 21
-8.0000
 31
96.0000
  0
LINE
  8
0
 10
0.0000
 20
-7.5000
 30
115.2000
 11
-10.5000
 21
0.0000
 31
115.2000
  0
LINE
  8
0
 10
-10.5000
 20
0.0000
 30
115.2000
 11
-11.5000
 21
16.0000
 31
115.2000
  0
LINE
  8
0
 10
-11.5000
 20
16.0000
 30
115.2000
 11
0.0000
 21
16.0000
 31
115.2000
  0
LINE
  8
0
 10
0.0000
 20
16.0000
 30
115.2000
 11
11.5000
 21
16.0000
 31
115.2000
  0
LINE
  8
0
 10
11.5000
 20
16.0000
 30
115.2000
 11
10.5000
 21
0.0000
 31
115.2000
  0
LINE
  8
0
 10
10.5000
 20
0.0000
 30
115.2000
 11
0.0000
 21
-7.5000
 31
115.2000
  0
LINE
  8
0
 10
0.0000
 20
-7.0000
 30
134.4000
 11
-10.0000
 21
0.0000
 31
134.4000
  0
LINE
  8
0
 10
-10.0000
 20
0.0000
 30
134.4000
 11
-11.0000
 21
16.0000
 31
134.4000
  0
LINE
  8
0
 10
-11.0000
 20
16.0000
 30
134.4000
 11
0.0000
 21
16.0000
 31
134.4000
  0
LINE
  8
0
 10
0.0000
 20
16.0000
 30
134.4000
 11
11.0000
 21
16.0000
 31
134.4000
  0
LINE
  8
0
 10
11.0000
 20
16.0000
 30
134.4000
 11
10.0000
 21
0.0000
 31
134.4000
  0
LINE
  8
0
 10
10.0000
 20
0.0000
 30
134.4000
 11
0.0000
 21
-7.0000
 31
134.4000
  0
LINE
  8
0
 10
0.0000
 20
-6.0000
 30
153.6000
 11
-8.5000
 21
-1.0000
 31
153.6000
  0
LINE
  8
0
 10
-8.5000
 20
-1.0000
 30
153.6000
 11
-9.0000
 21
15.0000
 31
153.6000
  0
LINE
  8
0
 10
-9.0000
 20
15.0000
 30
153.6000
 11
0.0000
 21
15.0000
 31
153.6000
  0
LINE
  8
0
 10
0.0000
 20
15.0000
 30
153.6000
 11
9.0000
 21
15.0000
 31
153.6000
  0
LINE
  8
0
 10
9.0000
 20
15.0000
 30
153.6000
 11
8.5000
 21
-1.0000
 31
153.6000
  0
LINE
  8
0
 10
8.5000
 20
-1.0000
 30
153.6000
 11
0.0000
 21
-6.0000
 31
153.6000
  0
LINE
  8
0
 10
0.0000
 20
-4.0000
 30
172.8000
 11
-5.5000
 21
-2.0000
 31
172.8000
  0
LINE
  8
0
 10
-5.5000
 20
-2.0000
 30
172.8000
 11
-6.0000
 21
14.0000
 31
172.8000
  0
LINE
  8
0
 10
-6.0000
 20
14.0000
 30
172.8000
 11
0.0000
 21
14.0000
 31
172.8000
  0
LINE
  8
0
 10
0.0000
 20
14.0000
 30
172.8000
 11
6.0000
 21
14.0000
 31
172.8000
  0
LINE
  8
0
 10
6.0000
 20
14.0000
 30
172.8000
 11
5.5000
 21
-2.0000
 31
172.8000
  0
LINE
  8
0
 10
5.5000
 20
-2.0000
 30
172.8000
 11
0.0000
 21
-4.0000
 31
172.8000
  0
LINE
  8
0
 10
0.0
 20
-2.00
 30
192.00
 11
0.0
 21
12.00
 31
192.00
  0
3DFACE
  8
0
  0
LINE
  8
0
 10
0.0
 20
-2.0000
 30
0.0000
 11
0.0
 21
-4.0000
 31
19.2000
  0
LINE
  8
0
 10
0.0
 20
-4.0000
 30
19.2000
 11
0.0
 21
-6.0000
 31
38.4000
  0
LINE
  8
0
 10
0.0
 20
-6.0000
 30
38.4000
 11
0.0
 21
-7.0000
 31
57.6000
  0
LINE
  8
0
 10
0.0
 20
-7.0000
 30
57.6000
 11
0.0
 21
-7.5000
 31
76.8000
  0
LINE
  8
0
 10
0.0
 20
-7.5000
 30
76.8000
 11
0.0
 21
-8.0000
 31
96.0000
  0
LINE
  8
0
 10
0.0
 20
-8.0000
 30
96.0000
 11
0.0
 21
-7.5000
 31
115.2000
  0
LINE
  8
0
 10
0.0
 20
-7.5000
 30
115.2000
 11
0.0
 21
-7.0000
 31
134.4000
  0
LINE
  8
0
 10
0.0
 20
-7.0000
 30
134.4000
 11
0.0
 21
-6.0000
 31
153.6000
  0
LINE
  8
0
 10
0.0
 20
-6.0000
 30
153.6000
 11
0.0
 21
-4.0000
 31
172.8000
  0
LINE
  8
0
 10
0.0
 20
-4.0000
 30
172.8000
 11
0.0
 21
-2.0000
 31
192.0000
  0
LINE
  8
0
 10
-6.0000
 20
14.0000
 30
19.2000
 11
-9.0000
 21
15.0000
 31
38.4000
  0
LINE
  8
0
 10
6.0000
 20
14.0000
 30
19.2000
 11
9.0000
 21
15.0000
 31
38.4000
  0
LINE
  8
0
 10
-9.0000
 20
15.0000
 30
38.4000
 11
-11.0000
 21
16.0000
 31
57.6000
  0
LINE
  8
0
 10
9.0000
 20
15.0000
 30
38.4000
 11
11.0000
 21
16.0000
 31
57.6000
  0
LINE
  8
0
 10
-11.0000
 20
16.0000
 30
57.6000
 11
-11.5000
 21
16.0000
 31
76.8000
  0
LINE
  8
0
 10
11.0000
 20
16.0000
 30
57.6000
 11
11.5000
 21
16.0000
 31
76.8000
  0
LINE
  8
0
 10
-11.5000
 20
16.0000
 30
76.8000
 11
-12.0000
 21
16.0000
 31
96.0000
  0
LINE
  8
0
 10
11.5000
 20
16.0000
 30
76.8000
 11
12.0000
 21
16.0000
 31
96.0000
  0
LINE
  8
0
 10
-12.0000
 20
16.0000
 30
96.0000
 11
-11.5000
 21
16.0000
 31
115.2000
  0
LINE
  8
0
 10
12.0000
 20
16.0000
 30
96.0000
 11
11.5000
 21
16.0000
 31
115.2000
  0
LINE
  8
0
 10
-11.5000
 20
16.0000
 30
115.2000
 11
-11.0000
 21
16.0000
 31
134.4000
  0
LINE
  8
0
 10
11.5000
 20
16.0000
 30
115.2000
 11
11.0000
 21
16.0000
 31
134.4000
  0
LINE
  8
0
 10
-11.0000
 20
16.0000
 30
134.4000
 11
-9.0000
 21
15.0000
 31
153.6000
  0
LINE
  8
0
 10
11.0000
 20
16.0000
 30
134.4000
 11
9.0000
 21
15.0000
 31
153.6000
  0
LINE
  8
0
 10
-9.0000
 20
15.0000
 30
153.6000
 11
-6.0000
 21
14.0000
 31
172.8000
  0
LINE
  8
0
 10
9.0000
 20
15.0000
 30
153.6000
 11
6.0000
 21
14.0000
 31
172.8000
  0
ENDSEC
  0
EOF
